<svg width="32" height="32" viewBox="0 0 32 32" xmlns="http://www.w3.org/2000/svg">
  <defs>
    <linearGradient id="shieldGradient" x1="0%" y1="0%" x2="100%" y2="100%">
      <stop offset="0%" style="stop-color:#C34350;stop-opacity:1" />
      <stop offset="100%" style="stop-color:#B14452;stop-opacity:1" />
    </linearGradient>
  </defs>
  
  <!-- Shield Background -->
  <path d="M4 4 L4 20 Q4 26 8 26 L24 26 Q28 26 28 20 L28 4 Q28 2 26 2 L6 2 Q4 2 4 4 Z" 
        fill="url(#shieldGradient)" 
        stroke="#ffffff" 
        stroke-width="1"/>
  
  <!-- Cross in Shield -->
  <path d="M12 10 L20 10 M16 6 L16 14" 
        stroke="#ffffff" 
        stroke-width="2" 
        stroke-linecap="round"/>
  
  <!-- Crown on Shield -->
  <path d="M6 6 L8 2 L10 4 L12 2 L14 4 L16 2 L18 4 L20 2 L22 4 L24 2 L26 6" 
        fill="#ffffff" 
        stroke="none"/>
  
  <!-- Security Star -->
  <polygon points="16,16 17,20 21,20 18,22 19,26 16,24 13,26 14,22 11,20 15,20" 
           fill="#ffffff" 
           opacity="0.8"/>
</svg>
