<svg width="32" height="32" viewBox="0 0 32 32" xmlns="http://www.w3.org/2000/svg">
  <defs>
    <style>
      .shield-red { fill: #C34350; }
      .white { fill: #ffffff; }
    </style>
  </defs>
  
  <!-- Escudo principal -->
  <path d="M4 4 L4 20 Q4 26 8 26 L24 26 Q28 26 28 20 L28 4 Q28 2 26 2 L6 2 Q4 2 4 4 Z" 
        class="shield-red"/>
  
  <!-- Casa estilizada -->
  <g class="white">
    <!-- Techo a dos aguas -->
    <path d="M12 8 L10 12 L14 12 Z"/>
    
    <!-- Chimenea pequeña -->
    <rect x="13" y="6" width="1" height="2" class="white"/>
    
    <!-- Cuerpo de la casa cuadrado -->
    <rect x="10" y="12" width="4" height="4" class="white"/>
    
    <!-- Ventana cuadrada dividida en cuatro cuadros -->
    <rect x="11" y="13" width="2" height="2" class="white"/>
    <!-- Líneas de la rejilla en forma de cruz -->
    <line x1="12" y1="13" x2="12" y2="15" stroke="#C34350" stroke-width="0.2"/>
    <line x1="11" y1="14" x2="13" y2="14" stroke="#C34350" stroke-width="0.2"/>
  </g>
  
  <!-- Línea curva diagonal -->
  <path d="M6 16 Q12 18 18 16" 
        fill="none" 
        stroke="#C34350" 
        stroke-width="2" 
        stroke-linecap="round"/>
</svg>