<?xml version="1.0" standalone="no"?>
<!DOCTYPE svg PUBLIC "-//W3C//DTD SVG 20010904//EN"
 "http://www.w3.org/TR/2001/REC-SVG-20010904/DTD/svg10.dtd">
<svg version="1.0" xmlns="http://www.w3.org/2000/svg"
 width="1094.000000pt" height="519.000000pt" viewBox="0 0 1094.000000 519.000000"
 preserveAspectRatio="xMidYMid meet">

<g transform="translate(0.000000,519.000000) scale(0.100000,-0.100000)"
fill="#000000" stroke="none">
<path d="M2189 4932 c-54 -42 -402 -200 -529 -242 -36 -11 -74 -25 -85 -30
-56 -25 -308 -79 -495 -106 -58 -9 -109 -20 -115 -25 -27 -26 -11 -477 24
-674 41 -230 42 -236 84 -360 46 -138 133 -335 147 -335 3 0 12 -16 19 -35 7
-19 16 -35 20 -35 4 0 13 -12 20 -26 49 -108 316 -379 475 -483 89 -58 128
-82 176 -107 30 -16 57 -31 60 -34 3 -3 34 -19 70 -34 36 -16 89 -40 118 -54
l52 -25 43 20 c23 11 76 35 117 54 41 18 82 38 90 44 8 6 33 20 55 30 38 19
205 123 215 134 3 4 32 26 64 50 65 48 238 217 277 269 13 19 40 55 60 80 60
77 159 262 209 387 55 139 114 383 129 540 15 152 25 462 17 536 l-7 66 -112
16 c-181 26 -453 84 -495 107 -10 5 -60 23 -112 41 -52 18 -104 38 -115 45
-11 7 -44 22 -74 34 -75 29 -281 130 -310 152 -30 23 -62 23 -92 0z m81 -257
c14 -8 63 -32 110 -55 47 -22 93 -45 104 -51 10 -6 78 -33 150 -60 150 -57
337 -110 510 -145 66 -13 124 -28 128 -32 10 -10 -8 -345 -22 -417 -6 -27 -17
-86 -24 -130 -19 -107 -46 -207 -60 -222 -11 -13 -61 -21 -281 -47 -248 -30
-498 -72 -600 -101 -27 -8 -99 -28 -158 -45 -141 -40 -378 -136 -536 -218 -64
-33 -91 -36 -91 -7 0 8 -4 15 -8 15 -8 0 -84 126 -114 190 -62 132 -102 261
-134 430 -7 41 -18 100 -24 130 -6 30 -14 139 -17 241 l-6 187 29 6 c16 3 58
10 94 16 75 13 377 94 423 113 18 8 76 31 130 52 54 21 153 66 220 101 67 34
129 62 137 63 8 0 26 -6 40 -14z m779 -1391 c-28 -54 -57 -106 -65 -115 -8 -8
-14 -20 -14 -25 0 -5 -18 -29 -40 -52 -22 -24 -40 -47 -40 -51 0 -12 -159
-166 -229 -221 -35 -27 -89 -64 -120 -82 -31 -17 -58 -34 -61 -38 -3 -3 -57
-32 -120 -64 l-116 -58 -124 61 c-69 34 -147 75 -175 92 -61 38 -197 139 -207
153 -8 13 59 73 141 128 31 21 61 42 67 47 27 22 238 122 339 160 209 79 504
148 721 169 43 5 83 5 87 2 4 -4 -15 -51 -44 -106z"/>
<path d="M2185 4430 c-21 -17 -42 -34 -45 -38 -3 -4 -25 -23 -50 -41 -25 -19
-49 -39 -55 -45 -5 -6 -30 -27 -55 -45 -25 -19 -49 -39 -55 -45 -5 -6 -26 -23
-45 -37 -19 -15 -44 -35 -55 -45 -11 -11 -36 -32 -55 -48 -101 -82 -126 -103
-146 -122 -13 -12 -49 -43 -81 -68 -32 -25 -71 -57 -88 -70 l-29 -25 84 -3 85
-3 3 -247 c1 -137 5 -248 8 -248 3 0 21 7 40 16 18 9 52 22 76 29 l43 12 3
226 2 225 123 97 c67 54 129 105 137 114 8 9 40 36 70 59 30 23 72 56 92 73
l36 31 89 -68 c112 -88 197 -155 203 -163 3 -4 44 -37 93 -74 l87 -68 0 -121
0 -121 68 6 c37 4 77 7 90 7 21 0 22 3 22 110 l0 109 87 3 87 3 -98 80 c-54
44 -125 100 -157 125 l-59 44 0 128 0 128 -90 0 -90 0 0 -51 0 -50 -46 33
c-26 18 -56 42 -68 54 -11 11 -36 31 -55 44 -18 12 -58 45 -89 71 -30 27 -60
49 -66 49 -6 0 -29 -14 -51 -30z"/>
<path d="M2090 3825 l0 -55 60 0 60 0 0 55 0 55 -60 0 -60 0 0 -55z"/>
<path d="M2260 3825 l0 -55 60 0 60 0 0 55 0 55 -60 0 -60 0 0 -55z"/>
<path d="M2090 3670 l0 -60 60 0 60 0 0 60 0 60 -60 0 -60 0 0 -60z"/>
<path d="M2260 3670 l0 -60 60 0 60 0 0 60 0 60 -60 0 -60 0 0 -60z"/>
<path d="M4077 4510 c-101 -26 -195 -99 -235 -182 -31 -67 -45 -171 -33 -246
27 -167 130 -271 301 -302 100 -18 263 3 356 47 l34 17 -2 170 -3 171 -142 3
-143 3 0 -61 0 -60 55 0 56 0 -3 -77 -3 -78 -55 -9 c-111 -17 -219 40 -252
133 -7 20 -13 70 -13 111 1 95 30 161 92 204 37 26 54 30 125 34 80 4 143 -10
241 -53 16 -7 18 -2 15 66 l-3 73 -60 19 c-69 22 -266 32 -328 17z"/>
<path d="M4732 4238 c3 -236 6 -278 21 -313 38 -84 102 -127 216 -146 123 -20
250 11 313 78 59 62 63 83 66 381 l3 272 -90 0 -91 0 0 -236 c0 -141 -4 -253
-11 -280 -16 -62 -47 -84 -119 -84 -72 0 -103 22 -119 84 -7 27 -11 139 -11
280 l0 236 -91 0 -90 0 3 -272z"/>
<path d="M5626 4163 c-71 -192 -131 -354 -134 -361 -3 -10 16 -12 88 -10 l93
3 21 60 21 60 151 3 150 2 20 -62 20 -63 93 -3 c73 -2 92 0 89 10 -3 7 -63
169 -134 361 l-129 347 -110 0 -110 0 -129 -347z m294 29 l50 -142 -105 0
-105 0 50 142 c28 77 50 143 50 146 0 17 16 -21 60 -146z"/>
<path d="M6410 4151 l0 -361 90 0 90 0 0 135 0 135 56 0 c51 0 60 -3 88 -33
17 -19 53 -80 81 -135 l49 -102 98 0 98 0 -56 111 c-72 145 -98 182 -139 205
l-34 18 47 27 c26 15 55 40 65 57 39 67 31 172 -18 230 -47 56 -88 65 -312 70
l-203 4 0 -361z m352 202 c33 -34 30 -109 -6 -140 -23 -19 -38 -23 -97 -23
l-69 0 0 96 0 96 75 -4 c60 -3 79 -8 97 -25z"/>
<path d="M7240 4150 l0 -360 168 0 c93 0 195 5 227 11 118 22 206 87 254 188
23 49 26 69 26 161 0 122 -16 169 -85 244 -82 89 -187 116 -446 116 l-144 0 0
-360z m352 210 c87 -24 138 -102 138 -210 0 -79 -23 -133 -73 -177 -40 -35
-82 -47 -172 -48 l-60 0 -3 223 -2 222 67 0 c38 0 85 -5 105 -10z"/>
<path d="M8130 4150 l0 -360 95 0 95 0 0 360 0 360 -95 0 -95 0 0 -360z"/>
<path d="M8745 4493 c-25 -66 -249 -671 -252 -685 -5 -16 4 -18 85 -18 l90 0
22 65 22 66 151 -3 151 -3 20 -62 20 -63 93 0 92 0 -20 53 c-11 28 -70 189
-133 357 l-113 305 -110 3 c-98 2 -111 1 -118 -15z m215 -434 c0 -5 -45 -9
-100 -9 -55 0 -100 2 -100 4 0 4 82 238 96 276 5 13 104 -245 104 -271z"/>
<path d="M9410 4150 l0 -360 85 0 85 0 2 246 3 245 130 -245 130 -246 103 0
102 0 0 360 0 360 -85 0 -85 0 0 -247 c0 -135 -3 -243 -7 -239 -4 4 -64 114
-134 244 l-126 237 -101 3 -102 3 0 -361z"/>
<path d="M5947 3550 c-98 -17 -140 -70 -135 -167 6 -95 40 -124 183 -158 77
-17 105 -37 105 -71 0 -67 -108 -82 -232 -33 -27 10 -51 19 -53 19 -3 0 -5
-24 -5 -54 l0 -53 60 -17 c91 -26 221 -23 278 6 63 32 84 74 80 155 -6 98 -49
131 -210 163 -67 13 -90 32 -86 69 7 59 131 67 251 16 15 -6 17 -1 17 48 l0
55 -47 10 c-74 17 -153 21 -206 12z"/>
<path d="M3820 3282 l0 -272 143 0 c207 0 274 26 334 128 25 42 28 57 28 137
0 105 -19 152 -82 204 -55 46 -119 61 -280 68 l-143 6 0 -271z m294 140 c49
-29 70 -66 74 -135 6 -114 -43 -169 -158 -175 l-70 -4 0 172 0 172 63 -7 c34
-4 75 -14 91 -23z"/>
<path d="M4480 3280 l0 -270 190 0 190 0 0 50 0 50 -125 0 -125 0 0 65 0 65
115 0 115 0 0 50 0 50 -116 0 -115 0 3 53 3 52 118 3 117 3 0 49 0 50 -185 0
-185 0 0 -270z"/>
<path d="M5020 3280 l0 -270 190 0 190 0 0 50 0 50 -120 0 -120 0 0 220 0 220
-70 0 -70 0 0 -270z"/>
<path d="M6392 3348 c3 -156 8 -211 20 -238 34 -77 103 -112 220 -112 104 0
157 25 196 90 27 47 27 49 30 255 l4 207 -71 0 -71 0 0 -199 c0 -197 0 -200
-24 -228 -32 -37 -103 -40 -138 -5 -22 22 -23 30 -26 227 l-3 205 -71 0 -70 0
4 -202z"/>
<path d="M7030 3281 l0 -271 70 0 70 0 0 100 0 100 39 0 c54 0 80 -24 126
-119 l39 -81 73 0 73 0 -41 83 c-48 96 -83 146 -111 156 -17 6 -15 10 19 31
51 34 65 63 60 132 -6 107 -49 129 -264 136 l-153 5 0 -272z m265 144 c29 -28
32 -64 8 -94 -13 -16 -33 -24 -75 -28 l-58 -6 0 77 0 76 50 0 c41 0 56 -5 75
-25z"/>
<path d="M3815 2825 c-18 -17 -25 -35 -25 -64 0 -50 25 -75 90 -91 64 -15 84
-31 76 -58 -12 -35 -72 -38 -148 -7 -15 6 -18 2 -18 -23 0 -35 10 -40 89 -48
96 -10 151 26 151 100 0 32 -34 72 -67 80 -83 20 -102 28 -107 42 -4 9 -1 23
5 30 13 16 86 19 123 4 24 -9 26 -7 26 19 0 36 -13 41 -101 41 -61 0 -73 -3
-94 -25z"/>
<path d="M4140 2695 l0 -155 110 0 110 0 0 25 c0 24 -2 25 -70 25 l-70 0 0 40
0 40 65 0 65 0 0 30 0 30 -65 0 -65 0 0 30 0 30 70 0 70 0 0 30 0 30 -110 0
-110 0 0 -155z"/>
<path d="M4533 2834 c-47 -24 -77 -77 -77 -139 0 -103 77 -171 184 -162 30 3
67 10 83 16 26 10 27 13 27 86 l0 75 -60 0 c-57 0 -60 -1 -60 -25 0 -20 5 -25
25 -25 22 0 25 -4 25 -34 0 -39 -21 -52 -69 -41 -50 11 -76 49 -76 112 0 48 3
58 29 80 26 22 36 25 85 20 31 -2 64 -8 74 -12 14 -6 17 -2 17 19 0 19 -7 29
-26 36 -40 15 -145 12 -181 -6z"/>
<path d="M4860 2751 c0 -54 3 -112 6 -130 14 -71 99 -107 186 -80 64 21 78 56
78 197 l0 112 -35 0 -35 0 -1 -92 c-2 -122 -8 -149 -40 -167 -24 -13 -29 -13
-53 2 -26 17 -26 19 -26 137 l0 120 -40 0 -40 0 0 -99z"/>
<path d="M5250 2696 l0 -156 35 0 35 0 0 60 c0 54 2 60 21 60 35 0 54 -17 79
-69 22 -48 25 -51 62 -51 21 0 38 3 38 6 0 16 -64 123 -76 128 -10 4 -5 13 16
35 37 36 38 70 6 108 -23 26 -29 28 -120 31 l-96 4 0 -156z m144 91 c12 -9 17
-23 14 -42 -3 -27 -7 -30 -45 -33 l-43 -3 0 39 c0 21 3 42 7 45 11 11 48 8 67
-6z"/>
<path d="M5620 2695 l0 -155 35 0 35 0 0 155 0 155 -35 0 -35 0 0 -155z"/>
<path d="M5810 2696 l0 -156 85 0 c143 0 197 38 203 143 6 115 -44 158 -195
165 l-93 4 0 -156z m187 70 c23 -20 28 -32 28 -70 0 -58 -33 -95 -93 -103
l-42 -6 0 102 0 101 39 0 c28 0 49 -7 68 -24z"/>
<path d="M6258 2778 c-14 -40 -40 -110 -57 -155 l-30 -83 37 0 c33 0 39 4 49
30 11 29 13 30 76 30 63 0 65 -1 76 -30 9 -26 15 -30 47 -30 25 0 35 4 31 13
-2 6 -28 76 -57 155 l-53 142 -46 0 -46 0 -27 -72z m79 -126 c-21 -2 -41 -1
-44 2 -5 4 23 100 35 120 3 6 15 -19 27 -55 l22 -64 -40 -3z"/>
<path d="M6580 2696 l0 -156 83 0 c113 1 160 22 189 86 33 76 14 146 -54 197
-20 15 -48 21 -122 25 l-96 5 0 -157z m171 81 c37 -28 51 -96 28 -139 -12 -23
-66 -48 -104 -48 l-25 0 0 100 0 100 43 0 c23 0 49 -6 58 -13z"/>
<path d="M7150 2695 l0 -155 40 0 40 0 0 155 0 155 -40 0 -40 0 0 -155z"/>
<path d="M7350 2695 l0 -155 35 0 34 0 3 108 3 107 56 -105 56 -105 46 -3 47
-3 0 155 0 156 -35 0 -35 0 0 -105 c0 -58 -4 -105 -8 -105 -4 0 -33 47 -62
105 l-55 105 -42 0 -43 0 0 -155z"/>
<path d="M7710 2820 c0 -29 1 -30 50 -30 l50 0 0 -125 0 -125 40 0 40 0 0 125
0 125 50 0 c49 0 50 1 50 30 l0 30 -140 0 -140 0 0 -30z"/>
<path d="M8080 2695 l0 -155 105 0 105 0 0 25 c0 24 -2 25 -70 25 l-70 0 0 40
0 40 65 0 65 0 0 30 0 30 -65 0 -65 0 0 30 0 30 70 0 70 0 0 30 0 30 -105 0
-105 0 0 -155z"/>
<path d="M8462 2830 c-96 -59 -97 -218 -1 -275 39 -23 159 -27 197 -7 20 11
22 20 22 87 l0 75 -60 0 c-57 0 -60 -1 -60 -25 0 -20 5 -25 25 -25 22 0 25 -4
25 -35 0 -40 -23 -51 -74 -37 -71 20 -94 132 -39 187 25 24 33 27 83 22 30 -2
63 -8 73 -12 14 -6 17 -2 17 23 0 36 -16 42 -110 42 -47 0 -74 -5 -98 -20z"/>
<path d="M8800 2696 l0 -156 35 0 35 0 0 60 c0 54 2 60 21 60 35 0 54 -17 79
-69 22 -48 25 -51 62 -51 21 0 38 2 38 5 0 15 -50 102 -68 119 l-21 18 27 23
c33 28 35 87 3 118 -17 18 -36 22 -116 25 l-95 4 0 -156z m141 94 c21 -12 25
-50 7 -68 -7 -7 -27 -12 -45 -12 -32 0 -33 1 -33 45 0 42 2 45 26 45 14 0 34
-5 45 -10z"/>
<path d="M9189 2703 c-30 -81 -55 -150 -57 -155 -2 -4 13 -8 33 -8 32 0 38 4
48 30 11 29 13 30 75 30 62 0 64 -1 75 -30 10 -26 16 -30 49 -30 l37 0 -35 98
c-20 53 -45 123 -57 155 l-21 57 -47 0 -46 0 -54 -147z m130 4 l20 -57 -49 0
-48 0 21 65 c12 36 25 61 29 57 4 -4 16 -33 27 -65z"/>
<path d="M9530 2695 l0 -155 110 0 110 0 0 25 c0 24 -2 25 -70 25 l-70 0 0
130 0 130 -40 0 -40 0 0 -155z"/>
</g>
</svg>
